<svg width="578" height="578" viewBox="0 0 578 578" fill="none" xmlns="http://www.w3.org/2000/svg">
<path d="M550.7 157.1C544.4 133.4 525.9 114.8 502.4 108.5C459.8 97 289 97 289 97C289 97 118.2 97 75.5999 108.5C52.0999 114.8 33.5999 133.4 27.2999 157.1C15.8999 200 15.8999 289.4 15.8999 289.4C15.8999 289.4 15.8999 378.8 27.2999 421.7C33.5999 445.4 52.0999 463.2 75.5999 469.5C118.2 481 289 481 289 481C289 481 459.8 481 502.4 469.5C525.9 463.2 544.4 445.3 550.7 421.7C562.1 378.8 562.1 289.4 562.1 289.4C562.1 289.4 562.1 200 550.7 157.1ZM233.2 370.6V208.2L375.9 289.4L233.2 370.6Z" fill="white"/>
</svg>
